<svg width="800" height="520" viewBox="0 0 800 520" fill="none" xmlns="http://www.w3.org/2000/svg" role="img" aria-labelledby="title desc">
  <title id="title">Planning illustration</title>
  <desc id="desc">Calendar and messaging visuals to show how scheduling works.</desc>
  <rect width="800" height="520" rx="44" fill="#f8fafc"/>
  <path d="M120 140C120 122.327 134.327 108 152 108H648C665.673 108 680 122.327 680 140V392C680 409.673 665.673 424 648 424H152C134.327 424 120 409.673 120 392V140Z" fill="#e0f2fe"/>
  <rect x="150" y="150" width="500" height="230" rx="24" fill="white" stroke="#bfdbfe" stroke-width="4"/>
  <rect x="180" y="180" width="160" height="26" rx="13" fill="#2563eb" fill-opacity="0.85"/>
  <rect x="350" y="180" width="110" height="26" rx="13" fill="#a855f7" fill-opacity="0.9"/>
  <rect x="470" y="180" width="60" height="26" rx="13" fill="#0ea5e9" fill-opacity="0.9"/>
  <rect x="180" y="226" width="160" height="80" rx="18" fill="#eff6ff" stroke="#c7d2fe" stroke-width="2"/>
  <rect x="360" y="226" width="250" height="80" rx="18" fill="#eef2ff" stroke="#c4b5fd" stroke-width="2"/>
  <rect x="180" y="320" width="200" height="40" rx="14" fill="#e2e8f0"/>
  <rect x="400" y="320" width="140" height="40" rx="14" fill="#c7d2fe"/>
  <rect x="560" y="320" width="40" height="40" rx="12" fill="#a5b4fc"/>
  <path d="M190 246H320" stroke="#2563eb" stroke-width="8" stroke-linecap="round"/>
  <path d="M370 246H540" stroke="#0ea5e9" stroke-width="8" stroke-linecap="round"/>
  <rect x="182" y="263" width="116" height="10" rx="5" fill="#94a3b8"/>
  <rect x="370" y="263" width="194" height="10" rx="5" fill="#94a3b8"/>
  <circle cx="224" cy="340" r="10" fill="#2563eb"/>
  <circle cx="430" cy="340" r="10" fill="#0ea5e9"/>
  <circle cx="590" cy="340" r="10" fill="#a855f7"/>
  <g filter="url(#shadow_card)">
    <rect x="540" y="220" width="110" height="92" rx="18" fill="#0f172a"/>
    <rect x="558" y="238" width="74" height="16" rx="8" fill="#f8fafc"/>
    <rect x="558" y="260" width="62" height="10" rx="5" fill="#94a3b8"/>
    <path d="M574 290L588 304L614 278" stroke="#22c55e" stroke-width="6" stroke-linecap="round" stroke-linejoin="round"/>
  </g>
  <g filter="url(#shadow_card)">
    <rect x="206" y="90" width="118" height="96" rx="20" fill="#0ea5e9"/>
    <path d="M236 134H292" stroke="white" stroke-width="6" stroke-linecap="round"/>
    <path d="M236 154H278" stroke="white" stroke-width="6" stroke-linecap="round"/>
    <circle cx="256" cy="114" r="10" fill="#f0f9ff"/>
    <circle cx="296" cy="114" r="10" fill="#cffafe"/>
  </g>
  <g filter="url(#shadow_card)">
    <rect x="488" y="60" width="124" height="96" rx="20" fill="#8b5cf6"/>
    <path d="M528 104H568" stroke="white" stroke-width="6" stroke-linecap="round"/>
    <path d="M528 124H552" stroke="white" stroke-width="6" stroke-linecap="round"/>
    <circle cx="508" cy="96" r="12" fill="#ede9fe"/>
    <circle cx="576" cy="84" r="12" fill="#ddd6fe"/>
  </g>
  <g filter="url(#shadow_soft)">
    <rect x="140" y="350" width="140" height="94" rx="22" fill="#fff"/>
    <path d="M172 394C172 380.745 182.745 370 196 370H224C237.255 370 248 380.745 248 394C248 407.255 237.255 418 224 418H196C182.745 418 172 407.255 172 394Z" fill="#dbeafe"/>
    <circle cx="210" cy="384" r="18" fill="#3b82f6"/>
    <circle cx="228" cy="370" r="10" fill="#bfdbfe"/>
    <circle cx="188" cy="370" r="8" fill="#bfdbfe"/>
  </g>
  <g filter="url(#shadow_soft)">
    <rect x="520" y="356" width="140" height="94" rx="22" fill="#fff"/>
    <path d="M552 400C552 386.745 562.745 376 576 376H604C617.255 376 628 386.745 628 400C628 413.255 617.255 424 604 424H576C562.745 424 552 413.255 552 400Z" fill="#ede9fe"/>
    <circle cx="590" cy="390" r="18" fill="#7c3aed"/>
    <circle cx="610" cy="376" r="10" fill="#c4b5fd"/>
    <circle cx="568" cy="376" r="8" fill="#c4b5fd"/>
  </g>
  <defs>
    <filter id="shadow_card" x="186" y="40" width="488" height="292" filterUnits="userSpaceOnUse" color-interpolation-filters="sRGB">
      <feFlood flood-opacity="0" result="BackgroundImageFix"/>
      <feColorMatrix in="SourceAlpha" type="matrix" values="0 0 0 0 0 0 0 0 0 0 0 0 0 0 0 0 0 0 127 0" result="hardAlpha"/>
      <feOffset dy="6"/>
      <feGaussianBlur stdDeviation="12"/>
      <feComposite in2="hardAlpha" operator="out"/>
      <feColorMatrix type="matrix" values="0 0 0 0 0.160784 0 0 0 0 0.215686 0 0 0 0 0.372549 0 0 0 0.24 0"/>
      <feBlend mode="normal" in2="BackgroundImageFix" result="effect1_dropShadow"/>
      <feBlend mode="normal" in="SourceGraphic" in2="effect1_dropShadow" result="shape"/>
    </filter>
    <filter id="shadow_soft" x="120" y="330" width="560" height="144" filterUnits="userSpaceOnUse" color-interpolation-filters="sRGB">
      <feFlood flood-opacity="0" result="BackgroundImageFix"/>
      <feColorMatrix in="SourceAlpha" type="matrix" values="0 0 0 0 0 0 0 0 0 0 0 0 0 0 0 0 0 0 127 0" result="hardAlpha"/>
      <feOffset dy="6"/>
      <feGaussianBlur stdDeviation="12"/>
      <feComposite in2="hardAlpha" operator="out"/>
      <feColorMatrix type="matrix" values="0 0 0 0 0.160784 0 0 0 0 0.215686 0 0 0 0 0.372549 0 0 0 0.22 0"/>
      <feBlend mode="normal" in2="BackgroundImageFix" result="effect1_dropShadow"/>
      <feBlend mode="normal" in="SourceGraphic" in2="effect1_dropShadow" result="shape"/>
    </filter>
  </defs>
</svg>
