<svg width="800" height="600" viewBox="0 0 800 600" fill="none" xmlns="http://www.w3.org/2000/svg" role="img" aria-labelledby="title desc">
  <title id="title">Collaboration illustration</title>
  <desc id="desc">People collaborating on a contact plan around a shared screen.</desc>
  <rect width="800" height="600" rx="48" fill="url(#paint0_linear)"/>
  <circle cx="140" cy="130" r="70" fill="#fff" fill-opacity="0.1"/>
  <circle cx="670" cy="470" r="120" fill="#fff" fill-opacity="0.12"/>
  <rect x="200" y="120" width="400" height="280" rx="28" fill="#0f172a" fill-opacity="0.2" stroke="#c7d2fe" stroke-width="3"/>
  <rect x="230" y="150" width="340" height="220" rx="20" fill="#0b1224" stroke="#e0e7ff" stroke-width="2"/>
  <rect x="260" y="180" width="190" height="16" rx="8" fill="#60a5fa"/>
  <rect x="260" y="206" width="220" height="16" rx="8" fill="#6366f1" opacity="0.85"/>
  <rect x="260" y="232" width="160" height="16" rx="8" fill="#a5b4fc" opacity="0.7"/>
  <rect x="260" y="268" width="220" height="74" rx="14" fill="#111827" stroke="#334155" stroke-width="2"/>
  <path d="M280 294C280 289.582 283.582 286 288 286H392C396.418 286 400 289.582 400 294V316C400 320.418 396.418 324 392 324H288C283.582 324 280 320.418 280 316V294Z" fill="#1d4ed8"/>
  <path d="M318 300L342 312L366 300" stroke="white" stroke-width="4" stroke-linecap="round" stroke-linejoin="round"/>
  <rect x="426" y="282" width="84" height="12" rx="6" fill="#c7d2fe" opacity="0.8"/>
  <rect x="426" y="302" width="70" height="10" rx="5" fill="#94a3b8" opacity="0.8"/>
  <g>
    <circle cx="250" cy="392" r="46" fill="#1d4ed8"/>
    <path d="M250 356C268 356 282 370 282 388V396C282 401.523 277.523 406 272 406H228C222.477 406 218 401.523 218 396V388C218 370 232 356 250 356Z" fill="#1e3a8a"/>
    <circle cx="250" cy="340" r="18" fill="#c7d2fe"/>
  </g>
  <g>
    <circle cx="400" cy="414" r="52" fill="#0ea5e9"/>
    <path d="M400 368C422 368 440 386 440 408V420C440 426.627 434.627 432 428 432H372C365.373 432 360 426.627 360 420V408C360 386 378 368 400 368Z" fill="#075985"/>
    <circle cx="400" cy="348" r="20" fill="#e0f2fe"/>
  </g>
  <g>
    <circle cx="554" cy="392" r="46" fill="#a855f7"/>
    <path d="M554 356C572 356 586 370 586 388V396C586 401.523 581.523 406 576 406H532C526.477 406 522 401.523 522 396V388C522 370 536 356 554 356Z" fill="#6b21a8"/>
    <circle cx="554" cy="340" r="18" fill="#f5d0fe"/>
  </g>
  <path d="M250 392H400" stroke="#c7d2fe" stroke-width="3" stroke-linecap="round" stroke-dasharray="6 10"/>
  <path d="M400 392H554" stroke="#c7d2fe" stroke-width="3" stroke-linecap="round" stroke-dasharray="6 10"/>
  <g filter="url(#filter0_d)">
    <rect x="520" y="164" width="88" height="64" rx="16" fill="#22d3ee"/>
    <path d="M544 196H584" stroke="white" stroke-width="5" stroke-linecap="round"/>
    <path d="M544 210H572" stroke="white" stroke-width="5" stroke-linecap="round"/>
  </g>
  <g filter="url(#filter1_d)">
    <rect x="192" y="200" width="74" height="54" rx="14" fill="#34d399"/>
    <path d="M216 230L238 218" stroke="white" stroke-width="5" stroke-linecap="round" stroke-linejoin="round"/>
    <path d="M216 218L238 230" stroke="white" stroke-width="5" stroke-linecap="round" stroke-linejoin="round"/>
  </g>
  <defs>
    <filter id="filter0_d" x="506" y="154" width="116" height="92" filterUnits="userSpaceOnUse" color-interpolation-filters="sRGB">
      <feFlood flood-opacity="0" result="BackgroundImageFix"/>
      <feColorMatrix in="SourceAlpha" type="matrix" values="0 0 0 0 0 0 0 0 0 0 0 0 0 0 0 0 0 0 127 0" result="hardAlpha"/>
      <feOffset dy="4"/>
      <feGaussianBlur stdDeviation="6"/>
      <feComposite in2="hardAlpha" operator="out"/>
      <feColorMatrix type="matrix" values="0 0 0 0 0.0705882 0 0 0 0 0.133333 0 0 0 0 0.25098 0 0 0 0.25 0"/>
      <feBlend mode="normal" in2="BackgroundImageFix" result="effect1_dropShadow"/>
      <feBlend mode="normal" in="SourceGraphic" in2="effect1_dropShadow" result="shape"/>
    </filter>
    <filter id="filter1_d" x="178" y="190" width="102" height="82" filterUnits="userSpaceOnUse" color-interpolation-filters="sRGB">
      <feFlood flood-opacity="0" result="BackgroundImageFix"/>
      <feColorMatrix in="SourceAlpha" type="matrix" values="0 0 0 0 0 0 0 0 0 0 0 0 0 0 0 0 0 0 127 0" result="hardAlpha"/>
      <feOffset dy="4"/>
      <feGaussianBlur stdDeviation="6"/>
      <feComposite in2="hardAlpha" operator="out"/>
      <feColorMatrix type="matrix" values="0 0 0 0 0.0509804 0 0 0 0 0.25098 0 0 0 0 0.0862745 0 0 0 0.2 0"/>
      <feBlend mode="normal" in2="BackgroundImageFix" result="effect1_dropShadow"/>
      <feBlend mode="normal" in="SourceGraphic" in2="effect1_dropShadow" result="shape"/>
    </filter>
    <linearGradient id="paint0_linear" x1="80" y1="60" x2="720" y2="560" gradientUnits="userSpaceOnUse">
      <stop stop-color="#0b1354"/>
      <stop offset="1" stop-color="#0f172a"/>
    </linearGradient>
  </defs>
</svg>
