<svg width="1080" height="720" viewBox="0 0 1080 720" fill="none" xmlns="http://www.w3.org/2000/svg">
  <defs>
    <linearGradient id="background" x1="0" y1="0" x2="1" y2="1">
      <stop offset="0" stop-color="#111827" />
      <stop offset="1" stop-color="#0f172a" />
    </linearGradient>
    <linearGradient id="badge" x1="0" y1="0" x2="1" y2="1">
      <stop offset="0" stop-color="#22d3ee" />
      <stop offset="1" stop-color="#6366f1" />
    </linearGradient>
    <linearGradient id="module" x1="0" y1="0" x2="1" y2="1">
      <stop offset="0" stop-color="#fbbf24" />
      <stop offset="1" stop-color="#f472b6" />
    </linearGradient>
  </defs>
  <rect width="1080" height="720" rx="48" fill="url(#background)" />
  <rect x="120" y="96" width="840" height="528" rx="36" fill="#020617" stroke="#1f2937" />
  <rect x="180" y="156" width="720" height="120" rx="28" fill="#0f172a" />
  <rect x="180" y="308" width="720" height="120" rx="28" fill="#0f172a" />
  <rect x="180" y="460" width="720" height="120" rx="28" fill="#0f172a" />
  <rect x="220" y="180" width="200" height="72" rx="20" fill="#1e293b" />
  <rect x="220" y="332" width="200" height="72" rx="20" fill="#1e293b" />
  <rect x="220" y="484" width="200" height="72" rx="20" fill="#1e293b" />
  <text x="240" y="224" fill="#bae6fd" font-size="22" font-family="'Inter', 'Segoe UI', sans-serif">Launch cohort</text>
  <text x="240" y="376" fill="#bae6fd" font-size="22" font-family="'Inter', 'Segoe UI', sans-serif">Client sprint</text>
  <text x="240" y="528" fill="#bae6fd" font-size="22" font-family="'Inter', 'Segoe UI', sans-serif">Career runway</text>
  <rect x="460" y="180" width="380" height="28" rx="14" fill="#1e293b" />
  <rect x="460" y="332" width="380" height="28" rx="14" fill="#1e293b" />
  <rect x="460" y="484" width="380" height="28" rx="14" fill="#1e293b" />
  <rect x="460" y="214" width="320" height="18" rx="9" fill="#1e293b" />
  <rect x="460" y="366" width="320" height="18" rx="9" fill="#1e293b" />
  <rect x="460" y="518" width="320" height="18" rx="9" fill="#1e293b" />
  <rect x="500" y="244" width="260" height="10" rx="5" fill="url(#module)" />
  <rect x="500" y="396" width="180" height="10" rx="5" fill="url(#badge)" />
  <rect x="500" y="548" width="320" height="10" rx="5" fill="#f472b6" fill-opacity="0.6" />
  <g opacity="0.8">
    <rect x="704" y="120" width="176" height="56" rx="28" fill="url(#badge)" />
    <text x="726" y="154" fill="#ecfeff" font-size="22" font-family="'Inter', 'Segoe UI', sans-serif">Live coaching</text>
  </g>
  <g opacity="0.9">
    <rect x="180" y="96" width="240" height="56" rx="28" fill="#0f172a" stroke="#38bdf8" stroke-opacity="0.5" />
    <text x="204" y="132" fill="#bae6fd" font-size="24" font-family="'Inter', 'Segoe UI', sans-serif">ZeroProgrammingBD</text>
  </g>
  <g opacity="0.9">
    <rect x="656" y="548" width="244" height="100" rx="28" fill="#0f172a" stroke="#6366f1" stroke-opacity="0.5" />
    <text x="684" y="596" fill="#c7d2fe" font-size="20" font-family="'Inter', 'Segoe UI', sans-serif">Mentors</text>
    <text x="684" y="626" fill="#c7d2fe" font-size="28" font-weight="700" font-family="'Inter', 'Segoe UI', sans-serif">24 senior leads</text>
  </g>
</svg>
