<svg width="1024" height="640" viewBox="0 0 1024 640" fill="none" xmlns="http://www.w3.org/2000/svg">
  <defs>
    <linearGradient id="deltaBg" x1="0" y1="0" x2="1" y2="1">
      <stop offset="0" stop-color="#0f172a" />
      <stop offset="1" stop-color="#1e293b" />
    </linearGradient>
    <linearGradient id="deltaAccent" x1="0" y1="0" x2="1" y2="1">
      <stop offset="0" stop-color="#22d3ee" />
      <stop offset="1" stop-color="#38bdf8" />
    </linearGradient>
  </defs>
  <rect width="1024" height="640" rx="40" fill="url(#deltaBg)" />
  <rect x="112" y="96" width="800" height="448" rx="32" fill="#020617" stroke="#0ea5e9" stroke-opacity="0.4" />
  <rect x="160" y="144" width="704" height="80" rx="24" fill="#0f172a" />
  <rect x="160" y="256" width="704" height="240" rx="28" fill="#0f172a" />
  <rect x="196" y="172" width="180" height="24" rx="12" fill="#1f2937" />
  <rect x="392" y="172" width="320" height="24" rx="12" fill="#1f2937" />
  <rect x="748" y="172" width="80" height="24" rx="12" fill="#22d3ee" />
  <rect x="208" y="292" width="240" height="24" rx="12" fill="#1f2937" />
  <rect x="208" y="332" width="200" height="20" rx="10" fill="#1f2937" />
  <rect x="208" y="372" width="180" height="20" rx="10" fill="#1f2937" />
  <rect x="488" y="292" width="304" height="24" rx="12" fill="#1f2937" />
  <rect x="488" y="332" width="280" height="20" rx="10" fill="#1f2937" />
  <rect x="488" y="372" width="260" height="20" rx="10" fill="#1f2937" />
  <rect x="488" y="412" width="240" height="20" rx="10" fill="#1f2937" />
  <g opacity="0.9">
    <rect x="624" y="440" width="184" height="72" rx="24" fill="#0f172a" stroke="#22d3ee" stroke-opacity="0.5" />
    <text x="650" y="484" fill="#bae6fd" font-size="22" font-family="'Inter', 'Segoe UI', sans-serif">SME Super App</text>
  </g>
  <g opacity="0.9">
    <rect x="160" y="96" width="220" height="56" rx="28" fill="#0f172a" stroke="#22d3ee" stroke-opacity="0.3" />
    <text x="188" y="132" fill="#bae6fd" font-size="24" font-family="'Inter', 'Segoe UI', sans-serif">Delta Bank</text>
  </g>
</svg>
