<svg width="1024" height="640" viewBox="0 0 1024 640" fill="none" xmlns="http://www.w3.org/2000/svg">
  <defs>
    <linearGradient id="orbitBg" x1="0" y1="0" x2="1" y2="1">
      <stop offset="0" stop-color="#0b1120" />
      <stop offset="1" stop-color="#1f2937" />
    </linearGradient>
    <linearGradient id="orbitAccent" x1="0" y1="0" x2="1" y2="1">
      <stop offset="0" stop-color="#22d3ee" />
      <stop offset="1" stop-color="#a855f7" />
    </linearGradient>
  </defs>
  <rect width="1024" height="640" rx="40" fill="url(#orbitBg)" />
  <rect x="120" y="112" width="784" height="416" rx="32" fill="#020617" stroke="#38bdf8" stroke-opacity="0.4" />
  <rect x="168" y="160" width="688" height="80" rx="24" fill="#0f172a" />
  <rect x="168" y="272" width="320" height="208" rx="28" fill="#0f172a" />
  <rect x="520" y="272" width="336" height="208" rx="28" fill="#0f172a" />
  <circle cx="216" cy="200" r="24" fill="#22d3ee" />
  <rect x="256" y="188" width="256" height="24" rx="12" fill="#1e293b" />
  <rect x="256" y="220" width="192" height="16" rx="8" fill="#1e293b" />
  <rect x="208" y="304" width="240" height="24" rx="12" fill="#1e293b" />
  <rect x="208" y="344" width="200" height="20" rx="10" fill="#1e293b" />
  <rect x="208" y="384" width="160" height="20" rx="10" fill="#1e293b" />
  <rect x="208" y="424" width="180" height="20" rx="10" fill="#1e293b" />
  <rect x="560" y="304" width="256" height="24" rx="12" fill="#1e293b" />
  <rect x="560" y="344" width="220" height="20" rx="10" fill="#1e293b" />
  <rect x="560" y="384" width="200" height="20" rx="10" fill="#1e293b" />
  <rect x="560" y="424" width="180" height="20" rx="10" fill="#1e293b" />
  <g opacity="0.9">
    <rect x="648" y="112" width="216" height="56" rx="28" fill="#0f172a" stroke="#a855f7" stroke-opacity="0.4" />
    <text x="676" y="148" fill="#e9d5ff" font-size="24" font-family="'Inter', 'Segoe UI', sans-serif">Orbit Health</text>
  </g>
  <g opacity="0.9">
    <rect x="368" y="464" width="288" height="72" rx="24" fill="#0f172a" stroke="#22d3ee" stroke-opacity="0.5" />
    <text x="396" y="508" fill="#bae6fd" font-size="22" font-family="'Inter', 'Segoe UI', sans-serif">Telemedicine network</text>
  </g>
</svg>
