<svg width="1080" height="720" viewBox="0 0 1080 720" fill="none" xmlns="http://www.w3.org/2000/svg">
  <defs>
    <linearGradient id="bg" x1="0" y1="0" x2="1" y2="1">
      <stop offset="0" stop-color="#020617" />
      <stop offset="1" stop-color="#0b1120" />
    </linearGradient>
    <linearGradient id="orb" x1="0" y1="0" x2="1" y2="1">
      <stop offset="0" stop-color="#38bdf8" />
      <stop offset="1" stop-color="#6366f1" />
    </linearGradient>
    <linearGradient id="orb2" x1="0" y1="0" x2="1" y2="1">
      <stop offset="0" stop-color="#f472b6" />
      <stop offset="1" stop-color="#fbbf24" />
    </linearGradient>
  </defs>
  <rect width="1080" height="720" rx="48" fill="url(#bg)" />
  <circle cx="260" cy="360" r="160" fill="#0f172a" stroke="#1d4ed8" stroke-opacity="0.3" stroke-width="2" />
  <circle cx="820" cy="260" r="140" fill="#0f172a" stroke="#22d3ee" stroke-opacity="0.3" stroke-width="2" />
  <circle cx="780" cy="500" r="110" fill="#0f172a" stroke="#f472b6" stroke-opacity="0.3" stroke-width="2" />
  <circle cx="260" cy="360" r="96" fill="url(#orb)" fill-opacity="0.3" />
  <circle cx="820" cy="260" r="86" fill="url(#orb2)" fill-opacity="0.28" />
  <circle cx="780" cy="500" r="68" fill="#22d3ee" fill-opacity="0.2" />
  <text x="186" y="360" fill="#bfdbfe" font-size="72" font-family="'Inter', 'Segoe UI', sans-serif">OCT</text>
  <text x="758" y="268" fill="#fecdd3" font-size="48" font-family="'Inter', 'Segoe UI', sans-serif">Zero</text>
  <text x="714" y="310" fill="#fecdd3" font-size="32" font-family="'Inter', 'Segoe UI', sans-serif">ProgrammingBD</text>
  <text x="700" y="504" fill="#fce7f3" font-size="36" font-family="'Inter', 'Segoe UI', sans-serif">Accelerators</text>
  <g opacity="0.6">
    <path d="M360 300C468 200 612 180 740 220" stroke="#38bdf8" stroke-width="2" stroke-dasharray="10 12" />
    <path d="M360 420C520 480 640 520 740 500" stroke="#f472b6" stroke-width="2" stroke-dasharray="10 12" />
  </g>
  <g opacity="0.9">
    <rect x="200" y="120" width="280" height="80" rx="28" fill="#0f172a" stroke="#38bdf8" stroke-opacity="0.6" />
    <text x="228" y="168" fill="#bae6fd" font-size="26" font-family="'Inter', 'Segoe UI', sans-serif">Experience Clouds</text>
  </g>
  <g opacity="0.9">
    <rect x="620" y="120" width="260" height="80" rx="28" fill="#0f172a" stroke="#f472b6" stroke-opacity="0.6" />
    <text x="648" y="168" fill="#fbcfe8" font-size="26" font-family="'Inter', 'Segoe UI', sans-serif">Learning API</text>
  </g>
  <g opacity="0.9">
    <rect x="420" y="560" width="260" height="80" rx="28" fill="#0f172a" stroke="#22d3ee" stroke-opacity="0.6" />
    <text x="448" y="606" fill="#bae6fd" font-size="26" font-family="'Inter', 'Segoe UI', sans-serif">Launch Playbooks</text>
  </g>
</svg>
