<svg width="520" height="420" viewBox="0 0 520 420" fill="none" xmlns="http://www.w3.org/2000/svg">
  <rect width="520" height="420" rx="32" fill="url(#paint0_linear_story)"/>
  <g opacity="0.45">
    <path d="M40 120H220V320H40V120Z" fill="url(#paint1_linear_story)"/>
    <path d="M240 60H460V200H240V60Z" fill="url(#paint2_linear_story)"/>
    <path d="M240 220H360V360H240V220Z" fill="url(#paint3_linear_story)"/>
    <path d="M380 220H460V320H380V220Z" fill="url(#paint4_linear_story)"/>
  </g>
  <g opacity="0.3" stroke="#B6F4FF" stroke-width="1.5" stroke-linecap="round" stroke-dasharray="12 22">
    <path d="M60 80C120 120 200 120 260 80"/>
    <path d="M260 340C320 300 400 300 460 340"/>
  </g>
  <defs>
    <linearGradient id="paint0_linear_story" x1="40" y1="40" x2="480" y2="380" gradientUnits="userSpaceOnUse">
      <stop stop-color="#061733"/>
      <stop offset="1" stop-color="#0C2C58"/>
    </linearGradient>
    <linearGradient id="paint1_linear_story" x1="40" y1="120" x2="220" y2="320" gradientUnits="userSpaceOnUse">
      <stop stop-color="#56C9FF" stop-opacity="0.85"/>
      <stop offset="1" stop-color="#56C9FF" stop-opacity="0.1"/>
    </linearGradient>
    <linearGradient id="paint2_linear_story" x1="240" y1="60" x2="460" y2="200" gradientUnits="userSpaceOnUse">
      <stop stop-color="#8AF0FF" stop-opacity="0.9"/>
      <stop offset="1" stop-color="#8AF0FF" stop-opacity="0.15"/>
    </linearGradient>
    <linearGradient id="paint3_linear_story" x1="240" y1="220" x2="360" y2="360" gradientUnits="userSpaceOnUse">
      <stop stop-color="#6CE3FF" stop-opacity="0.85"/>
      <stop offset="1" stop-color="#6CE3FF" stop-opacity="0.1"/>
    </linearGradient>
    <linearGradient id="paint4_linear_story" x1="380" y1="220" x2="460" y2="320" gradientUnits="userSpaceOnUse">
      <stop stop-color="#4BB8FF" stop-opacity="0.85"/>
      <stop offset="1" stop-color="#4BB8FF" stop-opacity="0.15"/>
    </linearGradient>
  </defs>
</svg>
