<svg width="1080" height="720" viewBox="0 0 1080 720" fill="none" xmlns="http://www.w3.org/2000/svg">
  <defs>
    <linearGradient id="bg" x1="0" y1="0" x2="1" y2="1">
      <stop offset="0" stop-color="#020617" />
      <stop offset="1" stop-color="#111827" />
    </linearGradient>
    <linearGradient id="highlight" x1="0" y1="0" x2="1" y2="1">
      <stop offset="0" stop-color="#10b981" />
      <stop offset="1" stop-color="#3b82f6" />
    </linearGradient>
    <linearGradient id="highlight2" x1="0" y1="0" x2="1" y2="1">
      <stop offset="0" stop-color="#f472b6" />
      <stop offset="1" stop-color="#c084fc" />
    </linearGradient>
  </defs>
  <rect width="1080" height="720" rx="48" fill="url(#bg)" />
  <rect x="80" y="80" width="920" height="560" rx="40" fill="#0b1120" stroke="#334155" stroke-width="2" />
  <rect x="140" y="140" width="360" height="440" rx="32" fill="#020817" />
  <rect x="540" y="140" width="420" height="200" rx="32" fill="#020817" />
  <rect x="540" y="380" width="420" height="200" rx="32" fill="#020817" />
  <rect x="164" y="168" width="312" height="120" rx="24" fill="#0f172a" />
  <rect x="164" y="312" width="312" height="120" rx="24" fill="#0f172a" />
  <rect x="164" y="456" width="312" height="96" rx="24" fill="#0f172a" />
  <circle cx="200" cy="208" r="22" fill="#22d3ee" />
  <circle cx="200" cy="352" r="22" fill="#6366f1" />
  <circle cx="200" cy="488" r="22" fill="#f472b6" />
  <rect x="540" y="168" width="420" height="48" rx="24" fill="#0f172a" />
  <rect x="540" y="220" width="320" height="24" rx="12" fill="#0f172a" />
  <rect x="540" y="408" width="420" height="48" rx="24" fill="#0f172a" />
  <rect x="540" y="460" width="360" height="24" rx="12" fill="#0f172a" />
  <g opacity="0.6">
    <path d="M176 536h288" stroke="#1f2937" stroke-width="2" stroke-linecap="round" stroke-dasharray="6 12" />
    <path d="M560 264h360" stroke="#1f2937" stroke-width="2" stroke-linecap="round" stroke-dasharray="6 12" />
    <path d="M560 504h360" stroke="#1f2937" stroke-width="2" stroke-linecap="round" stroke-dasharray="6 12" />
  </g>
  <rect x="160" y="120" width="200" height="56" rx="28" fill="url(#highlight)" />
  <text x="186" y="156" fill="#ecfeff" font-size="24" font-family="'Inter', 'Segoe UI', sans-serif">Studio sprint</text>
  <rect x="680" y="112" width="260" height="56" rx="28" fill="url(#highlight2)" />
  <text x="712" y="148" fill="#fdf4ff" font-size="24" font-family="'Inter', 'Segoe UI', sans-serif">Academy immersion</text>
  <g opacity="0.9">
    <rect x="580" y="420" width="150" height="150" rx="28" fill="#0f172a" stroke="#10b981" stroke-width="2" />
    <rect x="750" y="420" width="150" height="150" rx="28" fill="#0f172a" stroke="#3b82f6" stroke-width="2" />
    <circle cx="655" cy="495" r="34" fill="#10b981" fill-opacity="0.4" />
    <circle cx="825" cy="495" r="34" fill="#3b82f6" fill-opacity="0.4" />
    <text x="618" y="518" fill="#bbf7d0" font-size="20" font-family="'Inter', 'Segoe UI', sans-serif">Design Ops</text>
    <text x="788" y="518" fill="#dbeafe" font-size="20" font-family="'Inter', 'Segoe UI', sans-serif">Dev Pods</text>
  </g>
</svg>
