<svg width="1024" height="640" viewBox="0 0 1024 640" fill="none" xmlns="http://www.w3.org/2000/svg">
  <defs>
    <linearGradient id="visionBg" x1="0" y1="0" x2="1" y2="1">
      <stop offset="0" stop-color="#020617" />
      <stop offset="1" stop-color="#111827" />
    </linearGradient>
    <linearGradient id="visionAccent" x1="0" y1="0" x2="1" y2="1">
      <stop offset="0" stop-color="#22d3ee" />
      <stop offset="1" stop-color="#6366f1" />
    </linearGradient>
  </defs>
  <rect width="1024" height="640" rx="40" fill="url(#visionBg)" />
  <rect x="112" y="96" width="800" height="448" rx="32" fill="#020617" stroke="#22d3ee" stroke-opacity="0.4" />
  <rect x="160" y="144" width="704" height="80" rx="24" fill="#0f172a" />
  <rect x="160" y="256" width="704" height="240" rx="28" fill="#0f172a" />
  <circle cx="212" cy="184" r="24" fill="#22d3ee" />
  <path d="M196 184c24-32 48-32 72 0-24 32-48 32-72 0z" fill="#1f2937" />
  <rect x="256" y="172" width="240" height="24" rx="12" fill="#1f2937" />
  <rect x="256" y="204" width="180" height="16" rx="8" fill="#1f2937" />
  <rect x="208" y="296" width="320" height="24" rx="12" fill="#1f2937" />
  <rect x="208" y="336" width="280" height="20" rx="10" fill="#1f2937" />
  <rect x="208" y="376" width="240" height="20" rx="10" fill="#1f2937" />
  <rect x="208" y="416" width="200" height="20" rx="10" fill="#1f2937" />
  <rect x="560" y="296" width="240" height="24" rx="12" fill="#1f2937" />
  <rect x="560" y="336" width="200" height="20" rx="10" fill="#1f2937" />
  <rect x="560" y="376" width="160" height="20" rx="10" fill="#1f2937" />
  <rect x="560" y="416" width="200" height="20" rx="10" fill="#1f2937" />
  <g opacity="0.7">
    <circle cx="640" cy="420" r="48" fill="#22d3ee" fill-opacity="0.12" />
    <circle cx="660" cy="360" r="60" fill="#6366f1" fill-opacity="0.1" />
  </g>
  <g opacity="0.9">
    <rect x="672" y="96" width="240" height="56" rx="28" fill="#0f172a" stroke="#6366f1" stroke-opacity="0.4" />
    <text x="702" y="132" fill="#c7d2fe" font-size="24" font-family="'Inter', 'Segoe UI', sans-serif">VisionMesh</text>
  </g>
  <g opacity="0.9">
    <rect x="160" y="448" width="256" height="72" rx="24" fill="#0f172a" stroke="#22d3ee" stroke-opacity="0.5" />
    <text x="188" y="492" fill="#bae6fd" font-size="22" font-family="'Inter', 'Segoe UI', sans-serif">Adaptive QA Platform</text>
  </g>
</svg>
