<svg width="420" height="320" viewBox="0 0 420 320" fill="none" xmlns="http://www.w3.org/2000/svg">
  <rect width="420" height="320" rx="32" fill="url(#paint0_radial_team)"/>
  <g filter="url(#filter0_d_team)">
    <rect x="48" y="48" width="324" height="224" rx="28" fill="#0B1324" fill-opacity="0.9" stroke="url(#paint1_linear_team)" stroke-width="2"/>
    <g transform="translate(80 88)">
      <rect width="92" height="112" rx="20" fill="#111D37" stroke="#312E81" stroke-opacity="0.5" stroke-width="1.5"/>
      <circle cx="46" cy="30" r="26" fill="url(#paint2_linear_team)"/>
      <rect x="18" y="72" width="56" height="12" rx="6" fill="#64748B" fill-opacity="0.8"/>
      <rect x="8" y="94" width="76" height="10" rx="5" fill="#334155" fill-opacity="0.7"/>
    </g>
    <g transform="translate(196 104)">
      <rect width="152" height="136" rx="24" fill="#0F192E" stroke="#4338CA" stroke-opacity="0.4" stroke-width="1.5"/>
      <rect x="32" y="20" width="88" height="12" rx="6" fill="#A855F7" fill-opacity="0.9"/>
      <rect x="20" y="48" width="112" height="12" rx="6" fill="#22D3EE" fill-opacity="0.3"/>
      <rect x="20" y="68" width="112" height="12" rx="6" fill="#38BDF8" fill-opacity="0.4"/>
      <rect x="20" y="88" width="112" height="12" rx="6" fill="#6366F1" fill-opacity="0.4"/>
      <g transform="translate(44 108)">
        <circle cx="8" cy="8" r="8" fill="#22D3EE"/>
        <circle cx="32" cy="8" r="8" fill="#6366F1"/>
        <circle cx="56" cy="8" r="8" fill="#A855F7"/>
      </g>
    </g>
  </g>
  <defs>
    <radialGradient id="paint0_radial_team" cx="0" cy="0" r="1" gradientUnits="userSpaceOnUse" gradientTransform="translate(64 32) rotate(35) scale(456 340)">
      <stop stop-color="#292152"/>
      <stop offset="0.45" stop-color="#14112E"/>
      <stop offset="1" stop-color="#050817"/>
    </radialGradient>
    <linearGradient id="paint1_linear_team" x1="48" y1="48" x2="372" y2="272" gradientUnits="userSpaceOnUse">
      <stop stop-color="#6366F1" stop-opacity="0.65"/>
      <stop offset="1" stop-color="#38BDF8" stop-opacity="0.6"/>
    </linearGradient>
    <linearGradient id="paint2_linear_team" x1="20" y1="8" x2="70" y2="54" gradientUnits="userSpaceOnUse">
      <stop stop-color="#8B5CF6"/>
      <stop offset="1" stop-color="#22D3EE"/>
    </linearGradient>
    <filter id="filter0_d_team" x="24" y="32" width="372" height="272" filterUnits="userSpaceOnUse" color-interpolation-filters="sRGB">
      <feFlood flood-opacity="0" result="BackgroundImageFix"/>
      <feGaussianBlur in="BackgroundImageFix" stdDeviation="10"/>
      <feComposite in2="SourceAlpha" operator="in" result="effect1_backgroundBlur"/>
      <feColorMatrix in="SourceAlpha" type="matrix" values="0 0 0 0 0 0 0 0 0 0 0 0 0 0 0 0 0 0 127 0" result="hardAlpha"/>
      <feOffset dy="8"/>
      <feGaussianBlur stdDeviation="20"/>
      <feColorMatrix type="matrix" values="0 0 0 0 0.1 0 0 0 0 0.18 0 0 0 0 0.44 0 0 0 0.35 0"/>
      <feBlend mode="normal" in2="effect1_backgroundBlur" result="effect2_dropShadow"/>
      <feBlend mode="normal" in="SourceGraphic" in2="effect2_dropShadow" result="shape"/>
    </filter>
  </defs>
</svg>
